# xmcd
# Track frame offsets:
# 150
# 11087
# 18592
# 28885
# 36795
# 44257
# 53905
# 62442
# 72330
# 82475
#
# Disc length: 1174 seconds
# Revision: 0
# Processed by: cddbd v1.4PL0 Copyright (c) Steve Scherf et al.
# Submitted via: VisiTrax 2.9.7.197 - For more info visit www.synapsa.com
#
DISCID=8904940a
DTITLE=Jones, Grandpa - Grandpa Jones - Good Old Mountain Dew
DYEAR=1997
DGENRE=Country - Old Time
TTITLE0=Good Old Mountain Dew
TTITLE1=She's The Steppin' Kind
TTITLE2=Eight More Miles To Louisville
TTITLE3=Boil That Cabbage Down
TTITLE4=The Bald Headed End Of The Broom
TTITLE5=Kitty Clyde
TTITLE6=Are You From Dixie?
TTITLE7=That New Vitamin
TTITLE8=My Bonnie Lies Over The Ocean
TTITLE9=Unlce Eph's
EXTD=KRB, KRB5188-2
EXTT0=
EXTT1=
EXTT2=
EXTT3=
EXTT4=
EXTT5=
EXTT6=
EXTT7=
EXTT8=
EXTT9=
PLAYORDER=
